<svg width="0" height="0" class="hidden">

<symbol fill="currentColor" role="img" xmlns="http://www.w3.org/2000/svg" viewBox="0 0 24 24" id="Anaconda">
    <title>Anaconda icon</title>
    <path d="M4.37 18.34c-.9-.09-1.8-.26-2.68-.5l-.08-.02.02-.08c.26-.85.59-1.68.98-2.47l.04-.08.07.04c.59.33 1.22.63 1.85.89l.06.02-.01.06c-.1.67-.15 1.36-.17 2.05v.09h-.08zM6.31 6.23v-.02c-.52.01-1.04.04-1.55.1.06.53.16 1.05.27 1.56.36-.6.79-1.15 1.28-1.64zM4.46 18.95v-.07l-.07-.01c-.76-.07-1.53-.2-2.29-.38l-.2-.05.11.18c.69 1.04 1.53 1.96 2.5 2.74l.16.13-.03-.2c-.11-.8-.17-1.59-.18-2.34zM8.17.7c-.93.32-1.81.75-2.62 1.28.61.11 1.22.25 1.81.43.24-.59.51-1.15.81-1.71zm3.87-.64c-.46 0-.91.03-1.36.08.63.44 1.24.92 1.81 1.45l.48.44-.47.45c-.39.37-.76.77-1.12 1.2l-.02.02s-.07.08-.18.21c.28-.03.57-.05.86-.05 4.49 0 8.14 3.64 8.14 8.14 0 4.49-3.64 8.14-8.14 8.14-1.56 0-3.02-.44-4.25-1.2-.61.07-1.22.1-1.84.1-.29 0-.57-.01-.86-.02.02.93.11 1.88.26 2.88 1.91 1.29 4.21 2.05 6.69 2.05 6.6 0 11.94-5.35 11.94-11.94 0-6.6-5.34-11.95-11.94-11.95zm-1.58 2.82c.24-.28.48-.55.73-.82-.56-.48-1.15-.91-1.77-1.3-.38.64-.71 1.31-.99 1.99.54.2 1.06.43 1.58.68.23-.31.4-.49.45-.55zM2.35 9.7l.05.07.07-.05c.55-.4 1.13-.77 1.73-1.1l.06-.02-.02-.07c-.18-.67-.32-1.37-.41-2.08l-.01-.08-.08.02c-.88.16-1.76.4-2.6.7l-.08.03.03.08c.35.86.77 1.7 1.26 2.5zm-.14 1.15l-.07.05C1.5 11.42.89 12 .33 12.62l-.06.06.06.05c.62.54 1.29 1.04 1.99 1.48l.07.05.04-.07c.31-.56.67-1.11 1.05-1.64l.04-.05-.04-.05c-.44-.49-.85-1-1.23-1.54l-.04-.06zm4.69 7.53l.21-.01-.16-.13c-.64-.52-1.19-1.13-1.64-1.83v-.02l-.13-.06-.02.11c-.08.6-.13 1.22-.14 1.86v.08h.08c.28.02.57.02.85.02.31.01.63 0 .95-.02zM6.5 5.19c.13-.59.29-1.17.48-1.74-.75-.21-1.52-.37-2.29-.48-.07.78-.08 1.56-.03 2.33.61-.07 1.23-.1 1.84-.11zm1.15-.04c.52-.33 1.08-.61 1.67-.82-.42-.19-.84-.37-1.28-.53-.15.44-.28.9-.39 1.35zm-5.55 9.7l-.06-.04c-.62-.39-1.21-.82-1.77-1.28l-.16-.13.03.21c.15 1.15.47 2.26.94 3.32l.08.19.07-.19c.23-.68.52-1.35.84-1.99l.03-.09zM3.63 3.52c-.71.71-1.34 1.5-1.85 2.37.62-.18 1.24-.33 1.87-.44-.04-.64-.05-1.28-.02-1.93zm.36 8.38l.01-.21c.03-.73.15-1.44.37-2.13l.06-.2-.18.1c-.47.27-.93.57-1.37.89l-.07.05.05.07c.31.44.64.87.99 1.28l.14.15zm.08 1.22l-.03-.2-.12.18c-.33.47-.64.95-.92 1.45l-.04.07.07.04c.5.28 1.03.54 1.56.77l.19.08-.09-.19c-.31-.7-.52-1.44-.62-2.2zm-2.33-2.85l.06-.05-.04-.06c-.37-.6-.71-1.23-1.01-1.87l-.09-.18-.06.2C.25 9.39.06 10.52.03 11.66l-.01.21.15-.15c.49-.52 1.02-1.02 1.57-1.45z"></path>
  </symbol>

<symbol fill="currentColor" version="1.1" xmlns="http://www.w3.org/2000/svg" xmlns:xlink="http://www.w3.org/1999/xlink" enable-background="new 0 0 512 512" xml:space="preserve" viewBox="0 0 512 512" id="AutoCAD">
    <g id="2069a460dcf28295e231f3111e03dc98">
      <path display="inline" fill-rule="evenodd" clip-rule="evenodd" d="M55.704,499.013c0.082-0.158,0.925-1.752,5.251-7.704
		c8.558-11.79,21.405-20.608,25.638-23.336l87.14-10.979c-7.754,7.46-13.905,16.777,1.123,18.68
		c65.263,8.235,162.189-28.477,200.286-44.379l0.077,0.888l70.053-6.256c-33.935,17.05-119.062,50.789-302.894,80.874
		c-81.813,13.389-87.59-6.064-87.655-6.213 M144.581,0.5l70.877,8.266l244.397,398.478l-74.336,6.635l-40.14-70.836l-154.282,9.476
		l-4.882,85.457l-92.752,11.682L144.581,0.5z M193.805,274.023l108.265-2.709L201.924,95.382h-2.707L193.805,274.023z
		 M75.484,454.553L126.516,6.144c-0.256,0.743-0.379,1.268-0.379,1.268L52.145,474.739
		C60.603,465.174,70.282,458.035,75.484,454.553z"></path>
    </g>
  </symbol>

<symbol xmlns="http://www.w3.org/2000/svg" fill="none" viewBox="0 0 192 192" id="Chrome Dev">
    <path stroke="currentColor" stroke-width="12" d="M106 122c0-8.837 7.163-16 16-16h32c8.837 0 16 7.163 16 16v32c0 8.837-7.163 16-16 16h-32c-8.837 0-16-7.163-16-16v-32Z"></path>
    <path fill="currentColor" fill-rule="evenodd" d="M96 28c-20.432 0-38.76 9.011-51.224 23.276L63.98 84.54C68.683 71.4 81.244 62 96 62h58.903C143.145 41.675 121.17 28 96 28ZM28 96c0-12.39 3.314-24.007 9.104-34.011l29.122 50.44c4.868 8.803 13.526 15.219 23.774 17.043V120c0-.942.043-1.873.128-2.792a22.051 22.051 0 0 1-13.184-10.206l.004-.002-.215-.372A21.899 21.899 0 0 1 74 96c0-12.15 9.85-22 22-22 10.117 0 18.639 6.829 21.208 16.128.919-.085 1.85-.128 2.792-.128h9.472a33.867 33.867 0 0 0-7.548-16h38.438a67.676 67.676 0 0 1 3.459 17.03 29.938 29.938 0 0 1 12.163 6.594c.011-.54.016-1.081.016-1.624 0-44.183-35.817-80-80-80S16 51.817 16 96s35.817 80 80 80c.543 0 1.084-.005 1.624-.016a29.938 29.938 0 0 1-6.594-12.163C55.795 161.276 28 131.884 28 96Z" clip-rule="evenodd"></path>
    <path stroke="currentColor" stroke-linecap="round" stroke-linejoin="round" stroke-width="8" d="M128 124h10c7.732 0 14 6.268 14 14s-6.268 14-14 14h-10v-28Z"></path>
  </symbol>

<symbol fill="none" xmlns="http://www.w3.org/2000/svg" viewBox="0 0 24 24" id="Codepen">
    <path fill-rule="evenodd" clip-rule="evenodd" d="M11.4265 1.18077C11.7709 0.939744 12.2291 0.939744 12.5735 1.18077L22.5735 8.18077C22.8408 8.3679 23 8.67369 23 9V16C23 16.3263 22.8408 16.6321 22.5735 16.8192L12.5735 23.8192C12.2291 24.0603 11.7709 24.0603 11.4265 23.8192L1.42654 16.8192C1.15921 16.6321 1 16.3263 1 16V9C1 8.67369 1.15921 8.3679 1.42654 8.18077L11.4265 1.18077ZM3 10.9207V14.0793L5.25621 12.5L3 10.9207ZM7 13.7207L3.74379 16L11 21.0793V16.5207L7 13.7207ZM13 16.5207V21.0793L20.2562 16L17 13.7207L13 16.5207ZM18.7438 12.5L21 14.0793V10.9207L18.7438 12.5ZM20.2562 9L17 11.2793L13 8.47934V3.92066L20.2562 9ZM11 3.92066V8.47934L7 11.2793L3.74379 9L11 3.92066ZM12 10.2207L8.74379 12.5L12 14.7793L15.2562 12.5L12 10.2207Z" fill="currentColor"></path>
  </symbol>

<symbol fill="currentColor" version="1.1" xmlns="http://www.w3.org/2000/svg" xmlns:xlink="http://www.w3.org/1999/xlink" enable-background="new 0 0 512 512" xml:space="preserve" viewBox="0 0 512 512" id="CSS3">
    <g id="c133de6af664cd4f011a55de6b001b19">
      <path display="inline" d="M483.111,0.501l-42.59,461.314l-184.524,49.684L71.47,461.815L28.889,0.501H483.111z M397.29,94.302
		H255.831H111.866l6.885,55.708h137.08h7.7l-7.7,3.205l-132.07,55.006l4.38,54.453l127.69,0.414l68.438,0.217l-4.381,72.606
		l-64.058,18.035v-0.057l-0.525,0.146l-61.864-15.617l-3.754-45.07h-0.205H132.1h-0.202l7.511,87.007l116.423,34.429v-0.062
		l0.21,0.062l115.799-33.802l15.021-172.761h-131.03h-0.323l0.323-0.14l135.83-58.071L397.29,94.302z"></path>
    </g>
  </symbol>

<symbol version="1.1" xmlns="http://www.w3.org/2000/svg" xmlns:xlink="http://www.w3.org/1999/xlink" viewBox="0 -2.5 20 20" id="Email">
    <title>email [#1573]</title>
    <desc>Created with Sketch.</desc>
    <defs></defs>
    <g id="Page-1" stroke="none" stroke-width="1" fill="none" fill-rule="evenodd">
      <g id="Dribbble-Light-Preview" transform="translate(-300.000000, -922.000000)" fill="currentColor">
        <g id="icons" transform="translate(56.000000, 160.000000)">
          <path d="M262,764.291 L254,771.318 L246,764.281 L246,764 L262,764 L262,764.291 Z M246,775 L246,766.945 L254,773.98 L262,766.953 L262,775 L246,775 Z M244,777 L264,777 L264,762 L244,762 L244,777 Z" id="email-[#1573]"></path>
        </g>
      </g>
    </g>
  </symbol>

<symbol fill="none" xmlns="http://www.w3.org/2000/svg" viewBox="0 0 24 24" id="Git">
    <path fill-rule="evenodd" clip-rule="evenodd" d="M13.4142 3.82843C12.6332 3.04738 11.3668 3.04738 10.5858 3.82843L9.91421 4.5L11.482 6.06774C11.6472 6.02356 11.8208 6 12 6C13.1046 6 14 6.89543 14 8C14 8.17916 13.9764 8.35282 13.9323 8.51804L15.982 10.5677C16.1472 10.5236 16.3208 10.5 16.5 10.5C17.6046 10.5 18.5 11.3954 18.5 12.5C18.5 13.6046 17.6046 14.5 16.5 14.5C15.3954 14.5 14.5 13.6046 14.5 12.5C14.5 12.3208 14.5236 12.1472 14.5677 11.982L13 10.4142V15.2676C13.5978 15.6134 14 16.2597 14 17C14 18.1046 13.1046 19 12 19C10.8954 19 10 18.1046 10 17C10 16.2597 10.4022 15.6134 11 15.2676V9.73244C10.4022 9.38663 10 8.74028 10 8C10 7.82084 10.0236 7.64718 10.0677 7.48196L8.5 5.91421L3.82843 10.5858C3.04738 11.3668 3.04738 12.6332 3.82843 13.4142L10.5858 20.1716C11.3668 20.9526 12.6332 20.9526 13.4142 20.1716L20.1716 13.4142C20.9526 12.6332 20.9526 11.3668 20.1716 10.5858L13.4142 3.82843ZM9.17157 2.41421C10.7337 0.852115 13.2663 0.852119 14.8284 2.41422L21.5858 9.17157C23.1479 10.7337 23.1479 13.2663 21.5858 14.8284L14.8284 21.5858C13.2663 23.1479 10.7337 23.1479 9.17157 21.5858L2.41421 14.8284C0.852115 13.2663 0.852119 10.7337 2.41422 9.17157L9.17157 2.41421Z" fill="currentColor"></path>
  </symbol>

<symbol fill="none" xmlns="http://www.w3.org/2000/svg" viewBox="0 0 1024 1024" id="Github">
    <path fill-rule="evenodd" clip-rule="evenodd" d="M8 0C3.58 0 0 3.58 0 8C0 11.54 2.29 14.53 5.47 15.59C5.87 15.66 6.02 15.42 6.02 15.21C6.02 15.02 6.01 14.39 6.01 13.72C4 14.09 3.48 13.23 3.32 12.78C3.23 12.55 2.84 11.84 2.5 11.65C2.22 11.5 1.82 11.13 2.49 11.12C3.12 11.11 3.57 11.7 3.72 11.94C4.44 13.15 5.59 12.81 6.05 12.6C6.12 12.08 6.33 11.73 6.56 11.53C4.78 11.33 2.92 10.64 2.92 7.58C2.92 6.71 3.23 5.99 3.74 5.43C3.66 5.23 3.38 4.41 3.82 3.31C3.82 3.31 4.49 3.1 6.02 4.13C6.66 3.95 7.34 3.86 8.02 3.86C8.7 3.86 9.38 3.95 10.02 4.13C11.55 3.09 12.22 3.31 12.22 3.31C12.66 4.41 12.38 5.23 12.3 5.43C12.81 5.99 13.12 6.7 13.12 7.58C13.12 10.65 11.25 11.33 9.47 11.53C9.76 11.78 10.01 12.26 10.01 13.01C10.01 14.08 10 14.94 10 15.21C10 15.42 10.15 15.67 10.55 15.59C13.71 14.53 16 11.53 16 8C16 3.58 12.42 0 8 0Z" transform="scale(64)" fill="currentColor"></path>
  </symbol>

<symbol fill="currentColor" version="1.1" xmlns="http://www.w3.org/2000/svg" xmlns:xlink="http://www.w3.org/1999/xlink" enable-background="new 0 0 512 512" xml:space="preserve" viewBox="0 0 512 512" id="HTML5">
    <g id="c133de6af664cd4f011a55de6b0011b2">
      <path display="inline" d="M30.713,0.501L71.717,460.42l184.006,51.078l184.515-51.15L481.287,0.501H30.713z M395.754,109.646
		l-2.567,28.596l-1.128,12.681h-0.187H256h-0.197h-79.599l5.155,57.761h74.444H256h115.723h15.201l-1.377,15.146l-13.255,148.506
		l-0.849,9.523L256,413.854v0.012l-0.259,0.072l-115.547-32.078l-7.903-88.566h26.098h30.526l4.016,44.986l62.82,16.965l0.052-0.014
		v-0.006l62.916-16.977l6.542-73.158H256h-0.197H129.771l-13.863-155.444l-1.351-15.131h141.247H256h141.104L395.754,109.646z"></path>
    </g>
  </symbol>

<symbol fill="currentColor" version="1.1" xmlns="http://www.w3.org/2000/svg" viewBox="0 0 32 32" id="Javascript">
    <title>javascript</title>
    <path d="M17.313 14.789h-2.809c0 2.422-0.011 4.829-0.011 7.254 0.033 0.329 0.051 0.712 0.051 1.099 0 0.81-0.081 1.601-0.236 2.365l0.013-0.076c-0.412 0.861-1.475 0.751-1.957 0.6-0.451-0.242-0.808-0.609-1.031-1.055l-0.006-0.014c-0.044-0.094-0.097-0.174-0.16-0.246l0.001 0.001-2.281 1.406c0.367 0.79 0.934 1.434 1.637 1.885l0.018 0.011c0.763 0.427 1.675 0.678 2.645 0.678 0.484 0 0.954-0.063 1.401-0.18l-0.038 0.009c0.988-0.248 1.793-0.89 2.254-1.744l0.009-0.019c0.359-0.914 0.566-1.973 0.566-3.080 0-0.388-0.026-0.77-0.075-1.145l0.005 0.044c0.015-2.567 0-5.135 0-7.722zM28.539 23.843c-0.219-1.368-1.11-2.518-3.753-3.59-0.92-0.431-1.942-0.731-2.246-1.425-0.063-0.158-0.099-0.341-0.099-0.532 0-0.124 0.015-0.244 0.044-0.359l-0.002 0.010c0.208-0.55 0.731-0.935 1.343-0.935 0.199 0 0.388 0.040 0.559 0.113l-0.009-0.004c0.552 0.19 0.988 0.594 1.215 1.112l0.005 0.013c1.292-0.845 1.292-0.845 2.193-1.406-0.216-0.369-0.459-0.689-0.734-0.977l0.002 0.002c-0.767-0.814-1.852-1.32-3.056-1.32-0.171 0-0.34 0.010-0.505 0.030l0.020-0.002-0.881 0.111c-0.856 0.194-1.587 0.639-2.133 1.252l-0.003 0.004c-0.535 0.665-0.859 1.519-0.859 2.449 0 1.279 0.613 2.415 1.56 3.131l0.010 0.007c1.706 1.275 4.2 1.555 4.519 2.755 0.3 1.462-1.087 1.931-2.457 1.762-0.957-0.218-1.741-0.83-2.184-1.652l-0.009-0.017-2.287 1.313c0.269 0.536 0.607 0.994 1.011 1.385l0.001 0.001c2.174 2.194 7.61 2.082 8.586-1.255 0.113-0.364 0.178-0.782 0.178-1.215 0-0.3-0.031-0.593-0.091-0.875l0.005 0.028zM1.004 1.004h29.991v29.991h-29.991z"></path>
  </symbol>

<symbol fill="currentColor" version="1.1" xmlns="http://www.w3.org/2000/svg" viewBox="0 0 32 32" id="JSON">
    <title>json</title>
    <path d="M12.387 30.458c-0.224-0.097-0.408-0.192-0.586-0.298l0.024 0.013c-0.977-0.533-1.815-1.171-2.545-1.915l-0.002-0.002c-1.303-1.393-2.277-3.11-2.789-5.015l-0.019-0.083c-0.325-1.167-0.546-2.523-0.617-3.919l-0.002-0.045c-0.020-0.289-0.031-0.627-0.031-0.967 0-0.576 0.032-1.144 0.095-1.703l-0.006 0.069c0.163-1.665 0.664-3.184 1.434-4.529l-0.029 0.055c0.582-1.014 1.327-1.866 2.209-2.551l0.019-0.015c0.586-0.453 1.261-0.833 1.987-1.107l0.054-0.018c0.679-0.254 1.463-0.4 2.281-0.4 0.758 0 1.487 0.126 2.167 0.358l-0.047-0.014c0.036 0 0.036 0 0.056 0.037 0.019 0.019 0.056 0.019 0.075 0.037 0.056 0.020 0.13 0.056 0.206 0.092 0.345 0.18 0.633 0.354 0.909 0.544l-0.030-0.019c1.126 0.795 2.018 1.849 2.6 3.079l0.020 0.048c0.491 1.080 0.781 2.341 0.789 3.669v0.003c0.002 0.065 0.003 0.141 0.003 0.218 0 1.346-0.298 2.623-0.832 3.768l0.023-0.055c-0.726 1.505-1.86 2.716-3.257 3.518l-0.039 0.021c0.112 0.038 0.225 0.056 0.339 0.094 0.257 0.056 0.554 0.090 0.858 0.092l0.002 0c1.923-0.019 3.66-0.801 4.924-2.058l-0 0c0.242-0.224 0.463-0.463 0.665-0.718l0.010-0.013c0.261-0.305 0.514-0.64 0.744-0.991l0.023-0.037c0.264-0.408 0.52-0.881 0.74-1.374l0.027-0.068c0.263-0.595 0.483-1.291 0.625-2.015l0.011-0.064c0.147-0.787 0.232-1.692 0.232-2.617 0-0.41-0.017-0.816-0.049-1.217l0.003 0.053c-0.114-2.675-0.957-5.133-2.334-7.205l0.032 0.052c-0.237-0.34-0.465-0.633-0.706-0.914l0.013 0.015c-0.412-0.465-0.846-0.888-1.309-1.277l-0.019-0.015c-0.499-0.413-1.056-0.792-1.648-1.116l-0.055-0.028c-0.595-0.282-1.298-0.537-2.028-0.728l-0.086-0.019-0.375-0.075c-0.261-0.037-0.525-0.055-0.792-0.075-0.14-0.007-0.303-0.010-0.468-0.010-0.282 0-0.561 0.011-0.837 0.033l0.037-0.002c-0.97 0.066-1.871 0.216-2.741 0.444l0.101-0.023c-4.311 1.154-7.804 4.017-9.776 7.799l-0.040 0.085c-1 1.943-1.587 4.24-1.587 6.675 0 0.69 0.047 1.368 0.138 2.033l-0.009-0.077c0.161 1.379 0.504 2.636 1.006 3.809l-0.034-0.089c0.326 0.801 0.672 1.478 1.067 2.122l-0.036-0.063c1.406 2.226 3.308 4.020 5.557 5.259l0.078 0.040c0.765 0.435 1.656 0.834 2.586 1.148l0.11 0.032c0.282 0.092 0.562 0.187 0.861 0.262zM16.054 30.956c0.629-0.001 1.248-0.044 1.854-0.125l-0.072 0.008c1.463-0.194 2.789-0.572 4.026-1.116l-0.095 0.037c1.837-0.8 3.407-1.869 4.742-3.179l-0.002 0.002c1.232-1.208 2.254-2.625 3.010-4.193l0.039-0.090c0.609-1.262 1.057-2.727 1.266-4.267l0.009-0.076c0.081-0.597 0.127-1.287 0.127-1.988 0-0.842-0.067-1.668-0.195-2.473l0.012 0.089c-0.209-1.307-0.554-2.478-1.028-3.581l0.037 0.097c-0.338-0.783-0.694-1.447-1.1-2.076l0.033 0.055c-1.498-2.291-3.529-4.118-5.924-5.333l-0.087-0.040c-0.765-0.402-1.665-0.771-2.601-1.057l-0.114-0.030h-0.006c0.149 0.079 0.3 0.165 0.431 0.251 0.15 0.092 0.299 0.182 0.439 0.281 0.733 0.496 1.372 1.044 1.942 1.655l0.006 0.007c1.269 1.39 2.227 3.086 2.751 4.963l0.021 0.086c0.325 1.11 0.546 2.399 0.617 3.727l0.002 0.043c0.024 0.32 0.037 0.694 0.037 1.070 0 0.604-0.035 1.201-0.103 1.787l0.007-0.071c-0.191 1.683-0.737 3.207-1.562 4.541l0.027-0.047c-0.636 1.027-1.428 1.891-2.354 2.587l-0.024 0.017c-1.162 0.94-2.658 1.508-4.287 1.508-0.444 0-0.879-0.042-1.299-0.123l0.043 0.007c-0.358-0.085-0.669-0.196-0.965-0.335l0.030 0.013c-0.373-0.172-0.692-0.359-0.991-0.574l0.017 0.012c-0.592-0.399-1.103-0.855-1.546-1.371l-0.008-0.010c-0.527-0.625-0.969-1.346-1.291-2.129l-0.020-0.054c-0.374-0.94-0.599-2.028-0.617-3.166l-0-0.008c-0.004-0.104-0.007-0.227-0.007-0.35 0-1.553 0.398-3.012 1.097-4.282l-0.023 0.046c0.543-0.947 1.238-1.743 2.060-2.383l0.018-0.014c0.255-0.199 0.542-0.397 0.841-0.577l0.039-0.022 0.020-0.009c-0.429-0.102-0.921-0.161-1.426-0.161-0.132 0-0.262 0.004-0.392 0.012l0.018-0.001c-0.561 0.038-1.084 0.145-1.578 0.313l0.044-0.013c-0.49 0.163-0.911 0.353-1.308 0.581l0.035-0.018c-0.35 0.202-0.649 0.406-0.932 0.63l0.016-0.012c-0.264 0.225-0.525 0.45-0.769 0.694-1.322 1.421-2.23 3.244-2.521 5.266l-0.006 0.053c-0.104 0.714-0.163 1.538-0.163 2.376 0 0.461 0.018 0.918 0.053 1.37l-0.004-0.060c0.118 1.858 0.541 3.586 1.22 5.179l-0.039-0.103c0.451 1.040 1.016 1.936 1.697 2.73l-0.012-0.014c1.048 1.206 2.359 2.155 3.846 2.762l0.068 0.025c0.769 0.324 1.662 0.562 2.594 0.67l0.046 0.004c0.067 0.012 0.145 0.019 0.224 0.019 0.013 0 0.026-0 0.039-0.001l-0.002 0z"></path>
  </symbol>

<symbol fill="currentColor" version="1.1" xmlns="http://www.w3.org/2000/svg" viewBox="0 0 32 32" id="Jupyter">
    <title>jupyter</title>
    <path d="M16.411 23.683c-0.205 0.010-0.446 0.016-0.688 0.016-4.018 0-7.652-1.643-10.267-4.295l-0.002-0.002c0.826 2.34 2.3 4.28 4.207 5.659l0.034 0.024c1.864 1.351 4.197 2.162 6.719 2.162s4.854-0.81 6.751-2.184l-0.034 0.023c1.94-1.403 3.414-3.342 4.215-5.6l0.025-0.082c-2.619 2.653-6.256 4.296-10.276 4.296-0.241 0-0.481-0.006-0.719-0.018l0.034 0.001zM16.41 7.069c0.206-0.011 0.447-0.017 0.69-0.017 4.017 0 7.651 1.643 10.265 4.294l0.002 0.002c-0.826-2.34-2.3-4.28-4.206-5.659l-0.034-0.024c-1.864-1.35-4.197-2.159-6.719-2.159s-4.854 0.809-6.752 2.183l0.034-0.023c-1.941 1.402-3.415 3.342-4.216 5.6l-0.025 0.082c2.622-2.652 6.261-4.295 10.284-4.295 0.238 0 0.476 0.006 0.711 0.017l-0.033-0.001zM7.243 5.173c-0 0.363-0.147 0.692-0.384 0.931l0-0c-0.236 0.238-0.563 0.386-0.924 0.386s-0.689-0.148-0.924-0.386l-0-0c-0.237-0.239-0.384-0.569-0.384-0.932s0.147-0.693 0.384-0.932l-0 0c0.236-0.238 0.563-0.386 0.924-0.386s0.689 0.148 0.925 0.387l0 0c0.237 0.239 0.383 0.568 0.383 0.932 0 0 0 0.001 0 0.001v-0zM26.725 2.788c0 0.001 0 0.002 0 0.002 0 0.491-0.198 0.936-0.518 1.259l0-0c-0.319 0.323-0.762 0.523-1.251 0.523s-0.932-0.2-1.251-0.522l-0-0c-0.32-0.324-0.518-0.77-0.518-1.262s0.198-0.938 0.518-1.262l-0 0c0.319-0.322 0.761-0.522 1.251-0.522s0.932 0.2 1.251 0.522l0 0c0.32 0.323 0.518 0.768 0.518 1.26 0 0 0 0.001 0 0.001v-0zM9.948 28.748c0 0 0 0.001 0 0.002 0 0.619-0.249 1.18-0.653 1.588l0-0c-0.402 0.407-0.96 0.659-1.576 0.659s-1.174-0.252-1.576-0.658l-0-0c-0.404-0.408-0.653-0.97-0.653-1.59s0.249-1.181 0.653-1.59l-0 0c0.402-0.407 0.959-0.658 1.576-0.658s1.174 0.252 1.576 0.659l0 0c0.403 0.408 0.653 0.969 0.653 1.588 0 0.001 0 0.001 0 0.002v-0z"></path>
  </symbol>

<symbol version="1.1" xmlns="http://www.w3.org/2000/svg" xmlns:xlink="http://www.w3.org/1999/xlink" viewBox="0 0 20 20" id="LinkedIn">
    <title>linkedin [#161]</title>
    <desc>Created with Sketch.</desc>
    <defs></defs>
    <g id="Page-1" stroke="none" stroke-width="1" fill="none" fill-rule="evenodd">
      <g id="Dribbble-Light-Preview" transform="translate(-180.000000, -7479.000000)" fill="currentColor">
        <g id="icons" transform="translate(56.000000, 160.000000)">
          <path d="M144,7339 L140,7339 L140,7332.001 C140,7330.081 139.153,7329.01 137.634,7329.01 C135.981,7329.01 135,7330.126 135,7332.001 L135,7339 L131,7339 L131,7326 L135,7326 L135,7327.462 C135,7327.462 136.255,7325.26 139.083,7325.26 C141.912,7325.26 144,7326.986 144,7330.558 L144,7339 L144,7339 Z M126.442,7323.921 C125.093,7323.921 124,7322.819 124,7321.46 C124,7320.102 125.093,7319 126.442,7319 C127.79,7319 128.883,7320.102 128.883,7321.46 C128.884,7322.819 127.79,7323.921 126.442,7323.921 L126.442,7323.921 Z M124,7339 L129,7339 L129,7326 L124,7326 L124,7339 Z" id="linkedin-[#161]"></path>
        </g>
      </g>
    </g>
  </symbol>

<symbol fill="currentColor" xmlns="http://www.w3.org/2000/svg" viewBox="0 0 32 32" id="MATLAB">
    <path d="M5.765 21.661c-1.593-1.188-3.577-2.583-5.765-4.172l7.749-2.979 3.183 2.385c-2.385 2.781-3.973 3.776-5.167 4.771zM27.031 13.317c-0.599-1.588-0.995-3.181-1.593-4.771-0.593-1.792-1.187-3.38-2.183-4.771-0.4-0.593-1.192-1.989-2.187-1.989-0.199 0-0.396 0.197-0.599 0.197-0.595 0.204-1.391 1.391-1.589 2.188-0.593 0.995-1.792 2.583-2.583 3.577-0.199 0.396-0.6 0.797-0.797 0.996-0.593 0.395-1.193 0.995-1.984 1.391-0.204 0-0.401 0.197-0.599 0.197-0.595 0-0.996 0.396-1.391 0.593-0.595 0.6-1.193 1.391-1.787 1.991 0 0.197-0.204 0.395-0.401 0.599l2.984 2.181c2.188-2.583 4.771-5.167 6.557-10.135 0 0-0.593 5.369-5.364 11.131-2.985 3.38-5.371 5.171-5.767 5.567 0 0 0.792-0.197 1.589 0.199 1.593 0.593 2.385 2.781 2.984 4.369 0.396 1.193 0.989 2.188 1.391 3.38 1.589-0.396 2.584-0.995 3.579-1.989 0.989-0.989 1.984-2.183 2.979-3.177 1.792-2.187 3.975-4.968 6.756-3.577 0.4 0.197 0.995 0.599 1.192 0.796 0.599 0.396 0.995 0.792 1.593 1.391 0.991 0.792 1.391 1.391 2.183 1.787-1.984-3.973-3.375-7.948-4.968-12.125z"></path>
  </symbol>

<symbol fill="none" xmlns="http://www.w3.org/2000/svg" viewBox="0 0 15 15" id="Netlify">
    <path d="M7.14645 0.146447C7.34172 -0.0488155 7.6583 -0.0488155 7.85356 0.146447L8.83363 1.12651L7.01342 4.06685L4.30815 2.98475L7.14645 0.146447Z" fill="currentColor"></path>
    <path d="M3.53884 3.75406L2.42638 4.86652L4.71994 7.7717L6.47901 4.93012L3.53884 3.75406Z" fill="currentColor"></path>
    <path d="M1.7144 5.5785L0.146455 7.14645C0.12315 7.16975 0.102626 7.19478 0.0848846 7.22113L3.60707 7.97589L1.7144 5.5785Z" fill="currentColor"></path>
    <path d="M0.659968 8.36707L1.66655 9.37365L2.84238 8.83473L0.659968 8.36707Z" fill="currentColor"></path>
    <path d="M2.42086 10.128L2.93996 10.6471L3.59422 9.59016L2.42086 10.128Z" fill="currentColor"></path>
    <path d="M3.66637 11.3735L7.14645 14.8536C7.34172 15.0488 7.6583 15.0488 7.85356 14.8536L8.17746 14.5297L8.2957 13.9148L4.81919 9.51124L3.66637 11.3735Z" fill="currentColor"></path>
    <path d="M9.43824 13.2689L11.9259 10.7812L9.99616 10.3677L9.43824 13.2689Z" fill="currentColor"></path>
    <path d="M12.7681 9.93897L14.549 8.15812L10.7159 6.62489L10.185 9.38545L12.7681 9.93897Z" fill="currentColor"></path>
    <path d="M14.9209 7.22983C14.9018 7.20028 14.8794 7.1723 14.8536 7.14645L12.9906 5.28349L11.6226 5.91051L14.9209 7.22983Z" fill="currentColor"></path>
    <path d="M12.2363 4.52918L11.2992 3.59205L11.0109 5.0908L12.2363 4.52918Z" fill="currentColor"></path>
    <path d="M10.4451 2.73797L9.56004 1.85293L7.9561 4.44392L9.96267 5.24655L10.4451 2.73797Z" fill="currentColor"></path>
    <path d="M5.9983 8.48829L9.6622 6.80901L9.20703 9.17588L5.9983 8.48829Z" fill="currentColor"></path>
    <path d="M6.11237 9.53544L9.01814 10.1581L8.54526 12.6171L6.11237 9.53544Z" fill="currentColor"></path>
    <path d="M6.18693 7.30181L9.08617 5.97299L7.42169 5.3072L6.18693 7.30181Z" fill="currentColor"></path>
  </symbol>

<symbol fill="currentColor" xmlns="http://www.w3.org/2000/svg" viewBox="0 0 24 24" id="NPM">
    <path d="m12 12.534v-2.663h-1.334v2.666zm12-5.334h-24v8h6.666v1.334h5.334v-1.333h12zm-17.334 1.334v5.337h-1.333v-4h-1.334v4h-2.666v-5.334zm6.667 0v5.337h-2.666v1.334h-2.666v-6.666zm9.333 0v5.337h-1.333v-4h-1.334v4h-1.334v-4h-1.333v4h-2.667v-5.334z"></path>
  </symbol>

<symbol fill="currentColor" version="1.1" xmlns="http://www.w3.org/2000/svg" viewBox="0 0 32 32" id="PostgreSQL">
    <title>postgresql</title>
    <path d="M24.295 9.929c-0.010 0.155-0.082 0.292-0.191 0.387l-0.001 0.001c-0.131 0.143-0.306 0.243-0.504 0.278l-0.005 0.001c-0.028 0.004-0.061 0.007-0.094 0.007h-0c-0.001 0-0.003 0-0.004 0-0.312 0-0.58-0.189-0.694-0.46l-0.002-0.005c-0.030-0.221 0.33-0.388 0.701-0.44s0.764 0.011 0.794 0.231zM14.385 10.443c-0.121 0.311-0.418 0.528-0.766 0.528-0.004 0-0.007-0-0.011-0h0.001c-0 0-0 0-0 0-0.036 0-0.070-0.003-0.105-0.007l0.004 0c-0.261-0.047-0.483-0.191-0.63-0.392l-0.002-0.003c-0.082-0.094-0.132-0.219-0.132-0.354 0-0 0-0.001 0-0.001v0c0.012-0.077 0.055-0.143 0.115-0.185l0.001-0.001c0.152-0.084 0.334-0.133 0.528-0.133 0.083 0 0.164 0.009 0.242 0.026l-0.007-0.001c0.395 0.055 0.803 0.242 0.764 0.523zM25.403 18.086l-0.107-0.134-0.044-0.055c0.457-0.846 0.725-1.853 0.725-2.921 0-0.488-0.056-0.962-0.162-1.418l0.008 0.042c-0.070-0.453-0.111-0.976-0.111-1.508 0-0.007 0-0.014 0-0.021v0.001c0.023-0.501 0.076-0.97 0.158-1.429l-0.010 0.066c0.089-0.464 0.14-0.998 0.14-1.544 0-0.051-0-0.101-0.001-0.151l0 0.008c0.012-0.049 0.019-0.104 0.019-0.162 0-0.027-0.002-0.053-0.004-0.079l0 0.003c-0.4-1.58-1.151-2.949-2.168-4.073l0.007 0.008c-0.911-1.068-2.031-1.929-3.3-2.523l-0.060-0.025c0.696-0.149 1.496-0.234 2.316-0.234 0.075 0 0.15 0.001 0.225 0.002l-0.011-0c0.045-0.001 0.097-0.002 0.15-0.002 2.378 0 4.496 1.109 5.866 2.838l0.012 0.016c0.028 0.036 0.056 0.077 0.080 0.12l0.003 0.005c0.904 1.694-0.345 7.842-3.732 13.172zM25.117 9.322c-0.016 0.455-0.064 0.886-0.14 1.307l0.008-0.055c-0.078 0.425-0.134 0.931-0.157 1.445l-0.001 0.025c-0 0.017-0 0.036-0 0.056 0 0.567 0.042 1.124 0.124 1.668l-0.008-0.061c0.085 0.377 0.134 0.809 0.134 1.254 0 0.763-0.144 1.493-0.407 2.162l0.014-0.040c-0.076-0.131-0.155-0.289-0.224-0.453l-0.011-0.029c-0.066-0.159-0.209-0.416-0.406-0.77-0.769-1.38-2.571-4.611-1.649-5.929 0.474-0.678 1.676-0.707 2.722-0.579zM24.406 20.907c-0.051-1.039 0.336-1.148 0.746-1.263q0.085-0.023 0.169-0.051c0.050 0.044 0.105 0.087 0.162 0.125l0.005 0.003c0.62 0.273 1.342 0.431 2.102 0.431 0.592 0 1.161-0.096 1.693-0.274l-0.038 0.011c-0.344 0.293-0.736 0.544-1.16 0.738l-0.031 0.013c-0.644 0.264-1.391 0.429-2.173 0.454l-0.010 0c-0.119 0.018-0.256 0.029-0.395 0.029-0.386 0-0.754-0.080-1.087-0.224l0.018 0.007zM23.293 22.933c-0.021 0.221-0.045 0.47-0.077 0.745l-0.182 0.548c-0.014 0.040-0.022 0.086-0.023 0.134v0c0.001 0.027 0.001 0.058 0.001 0.089 0 0.355-0.053 0.699-0.151 1.022l0.006-0.025c-0.116 0.389-0.196 0.84-0.223 1.305l-0.001 0.016c-0.052 1.684-1.355 3.047-3.008 3.194l-0.013 0.001c-1.894 0.406-2.23-0.621-2.526-1.527q-0.045-0.142-0.096-0.283c-0.16-0.652-0.252-1.401-0.252-2.171 0-0.36 0.020-0.715 0.059-1.065l-0.004 0.043c0.006-0.128 0.009-0.279 0.009-0.43 0-1.026-0.154-2.016-0.441-2.948l0.019 0.071q0.008-0.55 0.024-1.114c0-0.003 0-0.008 0-0.012 0-0.046-0.007-0.090-0.020-0.132l0.001 0.003c-0.014-0.1-0.033-0.188-0.058-0.273l0.003 0.013c-0.141-0.521-0.496-0.941-0.964-1.164l-0.011-0.005c-0.176-0.088-0.384-0.14-0.605-0.14-0.104 0-0.205 0.011-0.302 0.033l0.009-0.002c0.128-0.47 0.26-0.854 0.412-1.228l-0.026 0.073 0.066-0.177c0.074-0.2 0.167-0.407 0.266-0.626 0.546-1.124 0.865-2.445 0.865-3.841 0-0.938-0.144-1.842-0.411-2.692l0.017 0.063c-0.183-1.108-1.135-1.943-2.281-1.943-0.18 0-0.356 0.021-0.524 0.060l0.016-0.003c-0.796 0.104-1.516 0.338-2.171 0.682l0.035-0.017q-0.124 0.063-0.245 0.13c0.091-2.147 0.896-4.090 2.181-5.615l-0.012 0.014c0.118-0.119 0.242-0.232 0.37-0.338l0.009-0.007c0.069-0.014 0.13-0.042 0.182-0.081l-0.001 0.001c0.893-0.654 2.014-1.047 3.227-1.047 0.097 0 0.193 0.002 0.288 0.007l-0.013-0.001c0.526 0.008 1.034 0.044 1.534 0.108l-0.067-0.007c2.043 0.393 3.787 1.463 5.032 2.963l0.011 0.014c0.748 0.869 1.354 1.887 1.766 2.998l0.022 0.069c-0.257-0.069-0.552-0.109-0.856-0.109-0.983 0-1.868 0.416-2.49 1.081l-0.002 0.002c-1.24 1.773 0.679 5.215 1.601 6.869 0.169 0.303 0.315 0.565 0.361 0.676 0.26 0.601 0.587 1.118 0.98 1.577l-0.007-0.008c0.087 0.109 0.171 0.214 0.236 0.306-0.501 0.144-1.401 0.478-1.319 2.146-0.015 0.195-0.053 0.558-0.104 1.018-0.054 0.269-0.098 0.597-0.123 0.93l-0.002 0.028zM14.091 17.219l-0.066 0.176c-0.137 0.328-0.279 0.745-0.397 1.172l-0.019 0.081c-0.893-0.013-1.695-0.395-2.261-1.001l-0.002-0.002c-0.632-0.667-1.020-1.57-1.020-2.564 0-0.198 0.015-0.392 0.045-0.582l-0.003 0.021c0.097-0.72 0.153-1.551 0.153-2.396 0-0.502-0.020-0.999-0.058-1.491l0.004 0.065c-0.006-0.107-0.012-0.201-0.015-0.275 0.805-0.611 1.824-0.98 2.929-0.98 0.132 0 0.262 0.005 0.391 0.015l-0.017-0.001c0.554 0.129 0.971 0.588 1.037 1.153l0.001 0.006c0.238 0.728 0.375 1.566 0.375 2.435 0 1.266-0.291 2.464-0.809 3.532l0.021-0.048c-0.105 0.233-0.204 0.453-0.289 0.682zM11.474 22.203c-0.205-0.052-0.385-0.128-0.549-0.227l0.009 0.005c0.172-0.073 0.375-0.134 0.585-0.173l0.019-0.003c1.604-0.33 1.851-0.563 2.392-1.25 0.124-0.157 0.264-0.336 0.459-0.553 0.040-0.045 0.072-0.099 0.091-0.159l0.001-0.003c0.213-0.189 0.34-0.137 0.546-0.052 0.227 0.125 0.395 0.336 0.46 0.587l0.001 0.007c0.023 0.065 0.037 0.139 0.037 0.217 0 0.125-0.035 0.242-0.095 0.341l0.002-0.003c-0.645 0.882-1.676 1.449-2.839 1.449-0.4 0-0.785-0.067-1.144-0.191l0.025 0.007zM3.967 15.846c-0.651-1.985-1.181-4.34-1.494-6.764l-0.021-0.199c-0.061-0.322-0.095-0.693-0.095-1.071 0-1.806 0.789-3.427 2.041-4.537l0.006-0.005c2.295-1.623 6.048-0.676 7.633-0.163l-0.012 0.012c-1.535 1.872-2.466 4.292-2.466 6.928 0 0.090 0.001 0.18 0.003 0.27l-0-0.013c-0 0.103 0.008 0.249 0.020 0.449 0.033 0.41 0.052 0.888 0.052 1.371 0 0.802-0.052 1.592-0.154 2.367l0.010-0.091c-0.033 0.206-0.051 0.444-0.051 0.686 0 1.231 0.482 2.35 1.269 3.177l-0.002-0.002q0.151 0.158 0.315 0.297c-0.433 0.464-1.375 1.49-2.377 2.696-0.709 0.853-1.199 0.689-1.36 0.636-0.685-0.368-1.222-0.939-1.538-1.631l-0.009-0.022c-0.684-1.252-1.286-2.708-1.73-4.232l-0.039-0.157zM30.445 19.403c-0.019-0.057-0.043-0.106-0.072-0.151l0.002 0.003c-0.174-0.329-0.596-0.427-1.259-0.29-2.066 0.426-2.866 0.164-3.156-0.024 1.617-2.452 2.918-5.292 3.751-8.326l0.049-0.209c0.339-1.313 0.997-4.403 0.153-5.913-0.059-0.112-0.122-0.208-0.192-0.298l0.003 0.004c-1.563-1.955-3.948-3.196-6.623-3.196-0.076 0-0.152 0.001-0.227 0.003l0.011-0c-0.042-0.001-0.091-0.001-0.141-0.001-1.342 0-2.633 0.22-3.838 0.625l0.085-0.025q-0.321-0.060-0.645-0.102c-0.488-0.093-1.053-0.151-1.631-0.16l-0.008-0c-0.083-0.004-0.18-0.006-0.278-0.006-1.315 0-2.538 0.394-3.557 1.071l0.024-0.015c-1.071-0.401-5.984-2.056-9.025 0.098-1.489 1.27-2.426 3.147-2.426 5.244 0 0.405 0.035 0.802 0.102 1.188l-0.006-0.041c0.335 2.698 0.879 5.126 1.632 7.461l-0.079-0.284c0.493 1.716 1.103 3.201 1.852 4.6l-0.061-0.124c0.433 0.984 1.182 1.764 2.116 2.225l0.026 0.012c0.168 0.049 0.361 0.078 0.561 0.078 0.742 0 1.392-0.391 1.756-0.979l0.005-0.009c1.001-1.204 1.987-2.282 2.43-2.758 0.502 0.279 1.097 0.451 1.731 0.471l0.006 0 0.001 0.005q-0.158 0.188-0.309 0.382c-0.424 0.538-0.512 0.649-1.875 0.93-0.388 0.080-1.418 0.292-1.433 1.014-0 0.004-0 0.008-0 0.013 0 0.147 0.043 0.284 0.117 0.399l-0.002-0.003c0.312 0.395 0.751 0.678 1.254 0.788l0.015 0.003c0.399 0.13 0.859 0.205 1.335 0.205 1.1 0 2.106-0.398 2.884-1.058l-0.006 0.005c-0.024 0.418-0.037 0.908-0.037 1.401 0 1.753 0.171 3.467 0.496 5.125l-0.027-0.167c0.382 1.373 1.616 2.367 3.084 2.38h0.002c0.369-0.003 0.726-0.046 1.070-0.124l-0.033 0.006c1.919-0.171 3.431-1.705 3.567-3.619l0.001-0.012c0.188-1.088 0.502-3.593 0.673-5.125 0.008-0.065 0.034-0.123 0.072-0.171l-0.001 0.001c0.001-0.001 0.087-0.059 0.534 0.038l0.055 0.009 0.317 0.028 0.019 0.001c0.095 0.004 0.207 0.007 0.319 0.007 1.024 0 2.002-0.2 2.895-0.564l-0.051 0.018c0.805-0.373 2.256-1.29 1.993-2.087z"></path>
  </symbol>

<symbol fill="currentColor" xmlns="http://www.w3.org/2000/svg" viewBox="0 0 32 32" id="Prettier">
    <path d="M11.427 31.24c0 0.422-0.339 0.76-0.76 0.76h-7.62c-1.016 0-1.016-1.526 0-1.526h7.62c0.422 0 0.76 0.344 0.76 0.766zM10.667 27.427h-1.526c-1.016 0-1.016 1.526 0 1.526h1.526c1.016 0 1.016-1.526 0-1.526zM3.047 28.953h3.047c1.016 0 1.016-1.526 0-1.526h-3.047c-1.016 0-1.016 1.526 0 1.526zM10.667 24.38h-7.62c-1.016 0-1.016 1.526 0 1.526h7.62c1.016 0 1.016-1.526 0-1.526zM21.333 21.333h-13.714c-1.016 0-1.016 1.526 0 1.526h13.714c1.016 0 1.016-1.526 0-1.526zM3.047 22.859h1.526c1.016 0 1.016-1.526 0-1.526h-1.526c-1.016 0-1.016 1.526 0 1.526zM25.906 18.286h-4.573c-1.016 0-1.016 1.521 0 1.521h4.573c1.016 0 1.016-1.521 0-1.521zM12.193 19.807h6.094c1.016 0 1.016-1.521 0-1.521h-6.094c-1.016 0-1.016 1.521 0 1.521zM3.047 19.807h6.094c1.016 0 1.016-1.521 0-1.521h-6.094c-1.016 0-1.016 1.521 0 1.521zM27.427 15.24h-12.188c-1.016 0-1.016 1.521 0 1.521h12.188c1.016 0 1.016-1.521 0-1.521zM12.953 16c0-0.422-0.344-0.76-0.76-0.76h-4.573c-1.016 0-1.016 1.521 0 1.521h4.573c0.417 0 0.76-0.339 0.76-0.76zM3.047 16.76h1.526c1.016 0 1.016-1.521 0-1.521h-1.526c-1.016 0-1.016 1.521 0 1.521zM28.953 12.193h-7.62c-1.016 0-1.016 1.521 0 1.521h7.62c1.016 0 1.016-1.521 0-1.521zM3.047 13.714h7.62c1.016 0 1.016-1.521 0-1.521h-7.62c-1.016 0-1.016 1.521 0 1.521zM20.573 9.906c0 0.417 0.339 0.76 0.76 0.76h7.62c1.016 0 1.016-1.526 0-1.526h-7.62c-0.422 0-0.76 0.344-0.76 0.766zM9.141 9.141c-1.016 0-1.016 1.526 0 1.526h1.526c1.016 0 1.016-1.526 0-1.526zM3.047 10.667h3.047c1.016 0 1.016-1.526 0-1.526h-3.047c-1.016 0-1.016 1.526 0 1.526zM25.141 6.859c0 0.417 0.344 0.76 0.766 0.76h1.521c1.016 0 1.016-1.526 0-1.526h-1.521c-0.422 0-0.76 0.344-0.76 0.766zM23.62 6.859c0-0.422-0.344-0.766-0.76-0.766h-6.099c-1.016 0-1.016 1.526 0 1.526h6.094c0.422 0 0.766-0.344 0.766-0.76zM3.047 7.62h10.667c1.016 0 1.016-1.526 0-1.526h-10.667c-1.016 0-1.016 1.526 0 1.526zM9.906 3.807c0 0.422 0.339 0.766 0.76 0.766h15.24c1.016 0 1.016-1.526 0-1.526h-15.24c-0.422 0-0.76 0.344-0.76 0.76zM3.047 4.573h4.573c1.016 0 1.016-1.526 0-1.526h-4.573c-1.016 0-1.016 1.526 0 1.526zM3.047 1.526h18.286c1.016 0 1.016-1.526 0-1.526h-18.286c-1.016 0-1.016 1.526 0 1.526z"></path>
  </symbol>

<symbol fill="currentColor" version="1.1" xmlns="http://www.w3.org/2000/svg" xmlns:xlink="http://www.w3.org/1999/xlink" enable-background="new 0 0 512 512" xml:space="preserve" viewBox="0 0 512 512" id="Python">
    <g id="5151e0c8492e5103c096af88a51ec286">
      <path display="inline" d="M194.734,246.879h121.768c33.9,0,60.956-27.908,60.956-61.95V68.846c0-33.035-27.87-57.855-60.956-63.371
		c-20.943-3.484-42.673-5.069-63.51-4.971c-20.845,0.097-40.74,1.874-58.258,4.971c-51.586,9.117-60.952,28.191-60.952,63.371
		v46.463H255.69v15.486H133.782h-45.75c-35.434,0-66.459,21.295-76.158,61.808c-11.192,46.435-11.694,75.409,0,123.898
		c8.666,36.088,29.359,61.807,64.79,61.807h41.917v-55.699C118.581,282.37,153.39,246.879,194.734,246.879z M187.063,84.333
		c-12.636,0-22.877-10.355-22.877-23.161c0-12.849,10.241-23.3,22.877-23.3c12.594,0,22.873,10.451,22.873,23.3
		C209.936,73.979,199.658,84.333,187.063,84.333z M499.37,192.603c-8.761-35.27-25.484-61.808-60.96-61.808h-45.75v54.134
		c0,41.972-35.582,77.292-76.158,77.292H194.734c-33.349,0-60.952,28.547-60.952,61.954v116.079
		c0,33.037,28.726,52.476,60.952,61.943c38.589,11.353,75.59,13.409,121.768,0c30.688-8.876,60.956-26.764,60.956-61.943v-46.461
		H255.69v-15.486h121.768h60.952c35.431,0,48.638-24.715,60.96-61.807C512.092,278.314,511.549,241.589,499.37,192.603z
		 M324.178,424.766c12.64,0,22.873,10.356,22.873,23.156c0,12.85-10.233,23.305-22.873,23.305
		c-12.595,0-22.877-10.455-22.877-23.305C301.301,435.122,311.583,424.766,324.178,424.766z"></path>
    </g>
  </symbol>

<symbol fill="currentColor" version="1.1" xmlns="http://www.w3.org/2000/svg" viewBox="0 0 32 32" id="React">
    <title>react</title>
    <path d="M14.313 22.211c0.55 0.025 1.112 0.043 1.681 0.043 0.575 0 1.143-0.012 1.7-0.043-0.557 0.72-1.107 1.357-1.689 1.964l0.008-0.008c-0.579-0.6-1.135-1.238-1.659-1.902l-0.041-0.054zM8.615 21.411c1.083 0.275 2.404 0.509 3.752 0.653l0.131 0.011c0.825 1.133 1.659 2.13 2.554 3.068l-0.011-0.012c-1.311 1.463-3.080 2.491-5.081 2.86l-0.055 0.008c-0.004 0-0.008 0-0.012 0-0.248 0-0.482-0.061-0.687-0.169l0.008 0.004c-0.832-0.475-1.193-2.292-0.912-4.627 0.067-0.575 0.177-1.18 0.312-1.797zM23.398 21.398c0.118 0.474 0.229 1.078 0.308 1.692l0.009 0.086c0.287 2.334-0.067 4.149-0.892 4.634-0.184 0.102-0.404 0.162-0.638 0.162-0.023 0-0.046-0.001-0.069-0.002l0.003 0c-2.053-0.375-3.821-1.396-5.129-2.841l-0.007-0.008c0.879-0.923 1.707-1.918 2.466-2.965l0.058-0.084c1.476-0.154 2.799-0.392 4.088-0.717l-0.197 0.042zM9.784 17.666c0.25 0.49 0.512 0.978 0.8 1.468q0.431 0.731 0.881 1.428c-0.868-0.127-1.706-0.287-2.507-0.482 0.225-0.787 0.507-1.602 0.825-2.416zM22.212 17.641c0.331 0.821 0.612 1.64 0.845 2.434-0.8 0.196-1.645 0.362-2.519 0.487 0.3-0.469 0.6-0.952 0.881-1.447 0.281-0.487 0.544-0.985 0.795-1.475zM7.619 12.292c0.436 1.478 0.904 2.714 1.449 3.906l-0.075-0.182c-0.466 1.005-0.927 2.234-1.305 3.499l-0.052 0.205c-0.706-0.217-1.274-0.43-1.827-0.669l0.115 0.044c-2.164-0.921-3.564-2.132-3.564-3.092s1.4-2.177 3.564-3.094c0.525-0.225 1.1-0.428 1.694-0.617zM24.358 12.287c0.605 0.187 1.18 0.396 1.718 0.622 2.164 0.925 3.564 2.134 3.564 3.094-0.006 0.96-1.406 2.174-3.57 3.093-0.525 0.225-1.1 0.427-1.693 0.616-0.44-1.483-0.908-2.718-1.451-3.912l0.076 0.188c0.464-1.004 0.926-2.233 1.303-3.498l0.053-0.206zM20.53 11.444c0.869 0.129 1.706 0.287 2.507 0.484-0.225 0.79-0.506 1.602-0.825 2.416-0.25-0.487-0.512-0.978-0.8-1.467-0.281-0.49-0.581-0.967-0.881-1.432zM11.458 11.444c-0.3 0.471-0.6 0.953-0.88 1.45-0.281 0.487-0.544 0.977-0.794 1.467-0.331-0.82-0.612-1.637-0.845-2.433 0.8-0.187 1.643-0.354 2.518-0.482zM16 11.126c0.925 0 1.846 0.042 2.752 0.116q0.761 1.091 1.478 2.324 0.697 1.2 1.272 2.432c-0.385 0.819-0.807 1.637-1.266 2.437-0.475 0.825-0.966 1.61-1.475 2.337-0.91 0.079-1.832 0.122-2.762 0.122-0.925 0-1.846-0.044-2.752-0.116-0.507-0.727-1.002-1.505-1.478-2.324q-0.697-1.2-1.272-2.432c0.379-0.821 0.807-1.641 1.266-2.442 0.475-0.825 0.966-1.607 1.475-2.334 0.91-0.080 1.832-0.122 2.762-0.122zM15.981 7.845c0.58 0.6 1.136 1.237 1.659 1.901l0.040 0.053c-0.55-0.025-1.112-0.042-1.681-0.042-0.575 0-1.143 0.012-1.7 0.042 0.556-0.72 1.106-1.357 1.689-1.964l-0.008 0.008zM9.88 4.033c2.053 0.376 3.82 1.397 5.129 2.841l0.007 0.008c-0.879 0.924-1.707 1.919-2.466 2.968l-0.058 0.084c-1.475 0.153-2.798 0.389-4.086 0.714l0.196-0.042c-0.14-0.612-0.244-1.205-0.317-1.774-0.287-2.334 0.067-4.149 0.892-4.632 0.206-0.097 0.447-0.157 0.701-0.165l0.003-0zM22.090 4.008v0.008c0.013-0 0.028-0.001 0.044-0.001 0.239 0 0.464 0.059 0.662 0.163l-0.008-0.004c0.832 0.477 1.193 2.293 0.912 4.629-0.067 0.575-0.177 1.181-0.312 1.799-1.085-0.278-2.406-0.513-3.754-0.656l-0.128-0.011c-0.826-1.134-1.66-2.131-2.555-3.070l0.012 0.012c1.311-1.46 3.077-2.488 5.074-2.859l0.056-0.009zM22.096 2.646c-2.442 0.371-4.556 1.557-6.1 3.268l-0.008 0.009c-1.555-1.71-3.669-2.888-6.051-3.245l-0.056-0.007c-0.013-0-0.029-0-0.045-0-0.491 0-0.952 0.129-1.351 0.355l0.014-0.007c-1.718 0.991-2.103 4.079-1.216 7.954-3.804 1.175-6.278 3.053-6.278 5.032 0 1.987 2.487 3.87 6.302 5.036-0.88 3.89-0.487 6.983 1.235 7.973 0.378 0.217 0.832 0.344 1.315 0.344 0.022 0 0.044-0 0.065-0.001l-0.003 0c2.442-0.371 4.556-1.558 6.1-3.27l0.008-0.009c1.555 1.711 3.669 2.889 6.051 3.246l0.056 0.007c0.015 0 0.034 0 0.052 0 0.488 0 0.947-0.128 1.344-0.351l-0.014 0.007c1.717-0.99 2.103-4.078 1.216-7.954 3.79-1.165 6.264-3.047 6.264-5.029 0-1.987-2.487-3.87-6.302-5.039 0.88-3.886 0.487-6.982-1.235-7.973-0.382-0.219-0.84-0.348-1.328-0.348-0.013 0-0.026 0-0.039 0l0.002-0zM18.787 16.005c0 1.543-1.251 2.794-2.794 2.794s-2.794-1.251-2.794-2.794c0-1.543 1.251-2.794 2.794-2.794 0.772 0 1.47 0.313 1.976 0.818v0c0.506 0.506 0.818 1.204 0.818 1.976 0 0 0 0 0 0v0z"></path>
  </symbol>

<symbol fill="currentColor" xmlns="http://www.w3.org/2000/svg" viewBox="0 -4 32 32" id="Sass">
    <path d="m27.533 13.796c.039-.001.085-.002.132-.002.834 0 1.623.194 2.323.54l-.031-.014c.638.311 1.162.771 1.541 1.335l.009.014c.299.436.477.975.477 1.555 0 .042-.001.084-.003.125v-.006c-.031.579-.294 1.09-.698 1.448l-.002.002c-.221.217-.488.387-.785.495l-.015.005q-.25.05-.275-.075t.225-.275c.452-.274.779-.716.898-1.237l.003-.013c.003-.042.005-.091.005-.141 0-.311-.074-.605-.205-.865l.005.011c-.217-.453-.541-.825-.94-1.094l-.01-.006c-.597-.384-1.313-.636-2.083-.699l-.016-.001c-.262-.039-.564-.061-.872-.061-.801 0-1.566.151-2.27.426l.042-.015c.145.339.236.732.249 1.144v.005c-.016.845-.47 1.58-1.145 1.99l-.011.006c-.31.22-.664.413-1.041.563l-.035.012c-.229.112-.498.177-.782.177-.033 0-.065-.001-.097-.003h.005q-.949-.199-.45-1.65c.145-.421.348-.786.605-1.107l-.006.007c.329-.43.69-.807 1.089-1.141l.011-.009-.098-.146c-.183-.312-.351-.675-.486-1.054l-.014-.046q-.15-.5-.25-.949l-.05-.35-.5.949q-.65 1.2-1.25 2.099l-.15.25c.168.408.292.881.348 1.375l.002.025c.004.047.006.103.006.159 0 .758-.374 1.428-.948 1.837l-.007.005c-.274.169-.601.344-.94.5l-.06.025c-.353.153-.762.253-1.191.275h-.009c-.033.002-.072.004-.111.004-.25 0-.487-.057-.699-.158l.01.004c-.127-.109-.207-.269-.207-.448 0-.091.021-.178.058-.255l-.002.004c.4-.561.794-1.049 1.213-1.515l-.013.015 1.1-1.399-.199-.45c-.16-.294-.313-.641-.436-1.001l-.014-.048q-.15-.5-.25-.949l-.05-.35-.5 1.2q-.599 1.399-1.1 2.399-.747 1.5-1.25 2.3l-.1.15q-.599.949-1.15.949t-.747-.7c-.096-.344-.152-.739-.152-1.147 0-.036 0-.072.001-.108v.005l.1-.7v.05q-.4.949-.8 1.749c-.177.346-.359.641-.563.919l.013-.019c-.206.216-.496.35-.817.35-.003 0-.005 0-.008 0-.021.002-.045.002-.069.002-.253 0-.483-.096-.657-.253l.001.001c-.349-.358-.608-.805-.742-1.304l-.005-.021c-.164-.455-.258-.981-.258-1.529 0-.071.002-.141.005-.21v.01c.079-.796.238-1.525.471-2.22l-.021.071-1.799 1.05v.05c.261.542.414 1.178.414 1.85 0 .123-.005.245-.015.365l.001-.016c-.053 1.03-.382 1.973-.913 2.77l.013-.02c-.557.884-1.36 1.567-2.314 1.962l-.033.012c-.537.241-1.165.382-1.825.382-.418 0-.824-.056-1.208-.162l.032.007c-.318-.107-.578-.319-.743-.593l-.003-.006c-.233-.338-.38-.751-.403-1.196v-.006c-.011-.101-.017-.218-.017-.337 0-.513.117-.999.326-1.432l-.009.02c.574-.979 1.368-1.772 2.316-2.33l.03-.016c.671-.465 1.442-.916 2.247-1.309l.106-.047.25-.15q-.45-.35-1.65-1.2c-1.069-.716-1.998-1.439-2.874-2.221l.025.022c-.847-.729-1.464-1.703-1.741-2.812l-.008-.038c-.026-.154-.041-.331-.041-.511 0-.564.145-1.094.399-1.555l-.008.017c.56-1.204 1.336-2.219 2.288-3.035l.012-.01c1.03-.973 2.196-1.82 3.462-2.506l.087-.043c1.131-.653 2.452-1.26 3.829-1.747l.17-.052c1.279-.468 2.756-.742 4.296-.747h.002c.07-.002.153-.004.236-.004 1.241 0 2.415.287 3.459.798l-.046-.021c.9.41 1.574 1.182 1.844 2.126l.006.024c.083.322.13.692.13 1.073 0 .632-.131 1.234-.366 1.78l.011-.029c-.428 1.037-1.037 1.92-1.797 2.647l-.003.003c-.77.763-1.693 1.373-2.718 1.78l-.055.019c-1.074.461-2.321.751-3.63.799l-.019.001c-.192.022-.414.034-.639.034-.592 0-1.163-.085-1.703-.244l.043.011c-.483-.154-.9-.393-1.254-.703l.004.003c-.248-.202-.45-.451-.594-.734l-.006-.013q-.15-.4-.025-.475t.175-.025l.25.25c.279.259.612.463.98.593l.02.006c.506.176 1.09.278 1.697.278.195 0 .387-.01.576-.031l-.023.002c1.618-.191 3.077-.743 4.336-1.573l-.037.023c1.064-.633 1.925-1.503 2.531-2.54l.018-.034c.301-.442.481-.988.481-1.576 0-.361-.068-.707-.192-1.025l.007.019c-.374-.591-.979-1.007-1.685-1.122l-.014-.002c-.548-.135-1.178-.213-1.825-.213-.521 0-1.031.05-1.524.146l.05-.008c-1.687.304-3.195.825-4.586 1.541l.091-.043q-6.148 3.1-6.349 6.349v.049c0 .873.343 1.666.902 2.252l-.001-.001c.637.708 1.341 1.333 2.11 1.873l.039.026c.701.524 1.321 1.065 1.898 1.649l.001.002.1.1 3.2-1.749c.365-.528.804-.974 1.308-1.334l.016-.011c.4-.336.908-.555 1.465-.599l.009-.001c.02-.002.043-.002.067-.002.373 0 .693.225.831.547l.002.006c.105.235.166.51.166.799 0 .088-.006.175-.017.261l.001-.01-.097.493.15-.1c.104-.079.235-.126.377-.126.09 0 .175.019.252.053l-.004-.002c.192.05.331.222.331.426 0 .035-.004.069-.012.102l.001-.003-.15.55q-.45 1.799-.599 2.599c-.05.173-.078.372-.078.578 0 .043.001.085.004.127v-.006q.025.3.075.3t.199-.3l.15-.35q.05 0 0 .05l.55-1.15q1.95-4.298 2.099-4.8l.3-.949q.05-.1.4-.199c.237-.064.508-.101.788-.101.023 0 .046 0 .068.001h-.003q.7 0 .7.35l-.05.25c-.112.308-.223.693-.309 1.087l-.011.063c-.02.129-.032.277-.032.429 0 .202.02.399.059.59l-.003-.019.05.199c.102.417.257.783.46 1.117l-.01-.017q.599-.999 1.15-2.049c.29-.483.56-1.043.777-1.629l.023-.07c.075-.377.161-.695.266-1.005l-.016.056q.05-.15.427-.225c.238-.048.511-.075.79-.075h.036-.002q.7 0 .747.35l-.1.199c-.119.336-.223.74-.293 1.155l-.006.045c-.009.097-.015.209-.015.323 0 .239.024.473.069.699l-.004-.023v.199c.115.436.286.819.51 1.166l-.01-.016.15.35c.835-.41 1.817-.65 2.855-.65h.039-.002zm-21.439 7.253c.695-.718 1.124-1.698 1.124-2.778 0-.417-.064-.819-.182-1.197l.008.028-.8.5c-.816.465-1.522.984-2.161 1.574l.008-.007c-.485.446-.843 1.023-1.019 1.674l-.006.025q-.225.925.225 1.2c.183.084.398.133.623.133.246 0 .479-.058.684-.162l-.009.004c.594-.216 1.097-.559 1.497-.998l.003-.003zm6.697-4.604q.25-.65.55-1.55.4-1.2.275-1.399t-.475-.05c-.278.135-.511.32-.697.547l-.003.004c-.208.263-.406.557-.582.866l-.018.034c-.202.331-.373.712-.492 1.116l-.009.034c-.193.523-.305 1.128-.305 1.758 0 .085.002.169.006.253v-.012q.05.999.32 1.075t.625-.725c.229-.413.433-.893.585-1.396l.014-.054q.149-.354.204-.501zm5.546 2.65c.693-.311 1.181-.966 1.249-1.741l.001-.008v-.05l-.55.7-.999 1.1c-.015.012-.025.03-.025.05 0 .02.01.038.024.05q.048.049.3-.1zm4.299-.95c.756-.216 1.3-.901 1.3-1.712 0-.013 0-.026 0-.039v.002c-.01-.2-.046-.388-.105-.566l.004.015c-.389.346-.708.76-.939 1.227l-.011.023q-.451.899-.252 1.048z"></path>
  </symbol>

<symbol xmlnsDc="http://purl.org/dc/elements/1.1/" xmlnsCc="http://creativecommons.org/ns#" xmlnsRdf="http://www.w3.org/1999/02/22-rdf-syntax-ns#" xmlns="http://www.w3.org/2000/svg" viewBox="-8.78 0 70 70" id="SQL">
    <metadata>
      <rdf:RDF>
        <cc:Work>
          <dc:subject>Data</dc:subject>
          <dc:identifier>sql-database-generic</dc:identifier>
          <dc:title>SQL Database (Generic)</dc:title>
          <dc:format>image/svg+xml</dc:format>
          <dc:publisher>Amido Limited</dc:publisher>
          <dc:creator>Richard Slater</dc:creator>
          <dc:type rdfResource="http://purl.org/dc/dcmitype/StillImage"></dc:type>
        </cc:Work>
      </rdf:RDF>
    </metadata>
    <path d="m 852.97077,1013.9363 c -6.55238,-0.4723 -13.02857,-2.1216 -17.00034,-4.3296 -2.26232,-1.2576 -3.98589,-2.8032 -4.66223,-4.1807 l -0.4024,-0.8196 0,-25.70807 0,-25.7081 0.31843,-0.6465 c 1.42297,-2.889 5.96432,-5.4935 12.30378,-7.0562 2.15195,-0.5305 5.2586,-1.0588 7.79304,-1.3252 2.58797,-0.2721 9.44765,-0.2307 12.02919,0.073 6.86123,0.8061 12.69967,2.6108 16.29768,5.0377 1.38756,0.9359 2.81137,2.4334 3.29371,3.4642 l 0.41358,0.8838 -0.0354,25.6303 -0.0354,25.63047 -0.33195,0.6744 c -0.18257,0.3709 -0.73406,1.1007 -1.22553,1.6216 -2.99181,3.1715 -9.40919,5.5176 -17.8267,6.5172 -1.71567,0.2038 -9.16916,0.3686 -10.92937,0.2417 z m 12.07501,-22.02839 c -0.0252,-0.0657 -1.00472,-0.93831 -2.17671,-1.93922 -1.17199,-1.00091 -2.18138,-1.86687 -2.24309,-1.92436 -0.0617,-0.0575 0.15481,-0.26106 0.48117,-0.45237 0.32635,-0.19131 0.95163,-0.7235 1.3895,-1.18265 1.2805,-1.34272 1.88466,-3.00131 1.88466,-5.17388 0,-2.1388 -0.65162,-3.8645 -1.95671,-5.1818 -1.31533,-1.3278 -2.82554,-1.8983 -5.02486,-1.8983 -3.39007,0 -5.99368,1.9781 -6.82468,5.1851 -0.28586,1.1031 -0.28432,3.33211 0.003,4.31023 0.74941,2.55136 2.79044,4.40434 5.33062,4.83946 0.8596,0.14724 0.97605,0.21071 1.5621,0.85144 0.34829,0.38078 1.06301,1.14085 1.58827,1.68904 l 0.95501,0.9967 2.53878,0 c 1.39633,0 2.51816,-0.0537 2.49296,-0.11939 z m -8.70653,-7.10848 c -0.61119,-0.31868 -0.84225,-0.56599 -1.19079,-1.27453 -0.26919,-0.54724 -0.31522,-0.85851 -0.31824,-2.15197 -0.003,-1.3143 0.0388,-1.5983 0.31987,-2.169 0.45985,-0.9339 1.09355,-1.376 2.07384,-1.4469 1.36454,-0.099 2.15217,0.5707 2.56498,2.1801 0.50612,1.97321 -0.0504,4.07107 -1.26471,4.76729 -0.63707,0.36527 -1.58737,0.40659 -2.18495,0.095 z m -11.25315,3.66269 c 2.66179,-0.5048 4.1728,-2.0528 4.1728,-4.27495 0,-1.97137 -0.97548,-3.12004 -3.6716,-4.32364 -1.54338,-0.689 -2.10241,-1.1215 -2.10241,-1.6268 0,-0.4188 0.53052,-0.8777 1.14813,-0.993 0.60302,-0.1126 2.20237,0.1652 3.14683,0.5467 l 0.79167,0.3198 0,-1.7524 0,-1.7525 -0.85923,-0.1906 c -0.53103,-0.1178 -1.64689,-0.1885 -2.92137,-0.1849 -1.80528,0 -2.15881,0.044 -2.83818,0.3138 -1.98445,0.7878 -2.92613,2.1298 -2.91107,4.1485 0.0141,1.8898 1.01108,3.06864 3.49227,4.12912 1.46399,0.62572 2.05076,1.10218 2.05076,1.66522 0,1.1965 -1.99362,1.34375 -4.10437,0.30315 -0.57805,-0.28498 -1.09739,-0.54137 -1.1541,-0.56976 -0.0567,-0.0284 -0.10311,0.79023 -0.10311,1.81917 0,1.86239 0.002,1.87137 0.33919,1.99974 1.26979,0.48278 4.07626,0.69787 5.52379,0.42335 z m 30.4308,-1.72766 0,-1.58098 -2.40584,0 -2.40583,0 0,-5.43035 0,-5.4303 -2.13089,0 -2.13088,0 0,7.0113 0,7.01131 4.53672,0 4.53672,0 0,-1.58098 z m -14.84745,-27.70503 c 4.23447,-0.2937 7.4086,-0.8482 10.20178,-1.7821 2.78264,-0.9304 4.42643,-2.0562 4.79413,-3.2834 0.14166,-0.4729 0.13146,-0.6523 -0.0665,-1.1708 -0.88775,-2.3245 -5.84694,-4.1104 -13.42493,-4.8345 -3.24154,-0.3098 -9.13671,-0.2094 -12.22745,0.2081 -4.71604,0.6372 -8.54333,1.8208 -10.2451,3.1683 -3.44251,2.726 0.19793,5.7242 8.66397,7.1354 3.67084,0.6119 8.42674,0.828 12.30414,0.559 z" fill="currentColor" transform="translate(-830.906 -943.981)"></path>
  </symbol>

<symbol fill="currentColor" role="img" xmlns="http://www.w3.org/2000/svg" viewBox="0 0 24 24" id="Styled Components">
    <title>styled-components icon</title>
    <path d="M16.214 6.762l-.075.391c-.116.741-.074.953.244 1.228l.307.254-.318 1.418c-.19.846-.423 1.555-.571 1.788-.127.201-.275.497-.307.656-.053.19-.233.381-.508.55-.243.138-.72.508-1.058.805-.27.243-.456.392-.557.456l-.33.261c-.106.17-.166.307-.189.411-.023.107-.01.178.024.23.033.05.09.085.168.107a.954.954 0 00.282.023 3 3 0 00.632-.112c.07-.019.125-.037.173-.053.074-.091.245-.263.548-.562.804-.793 1.111-1.227.794-1.11-.117.042-.064-.064.137-.276.424-.413.667-1.037 1.175-2.994.402-1.545.402-1.567.698-1.567.139 0 .532.024.532.024V6.762h-.902zm3.839 3.165c-.064 0-.17.096-.233.202-.116.19.021.306 1.767 1.396 1.037.657 1.873 1.217 1.852 1.26-.021.031-.868.582-1.883 1.217-1.842 1.142-1.852 1.153-1.683 1.386.212.275 0 .37 2.391-1.122L24 13.155v-.836l-1.937-1.196c-1.047-.656-1.957-1.185-2.01-1.196zm-16.085.117c-.053 0-.963.54-2.01 1.185L0 12.425v.836l1.947 1.217c1.08.666 1.99 1.217 2.032 1.217.042 0 .127-.096.212-.212.127-.201.02-.286-1.768-1.418C.72 12.996.54 12.848.71 12.732c.106-.074.91-.572 1.778-1.111 1.979-1.217 1.873-1.133 1.714-1.387-.063-.105-.17-.2-.233-.19zm8.684.023c-.292-.002-.92.443-2.8 1.978-.081.193-.088.326-.051.412.024.059.068.1.129.13.06.03.138.048.224.055.171.015.373-.012.536-.044l.11-.025a.386.386 0 01.144-.118c.116-.064.603-.508 1.09-.984.857-.868 1.058-1.26.709-1.387a.24.24 0 00-.09-.017zm2.196.603c-.257.007-.72.305-1.513.938-.398.323-.65.497-.785.533l-.524.414c-.197.36-.226.583-.174.706a.25.25 0 00.138.134.644.644 0 00.24.045 2.18 2.18 0 00.58-.085 3.466 3.466 0 00.291-.092l.029-.012.053-.028c.1-.129.33-.372.618-.652.91-.878 1.375-1.502 1.28-1.735-.043-.113-.117-.17-.233-.166zm-2.424 1.08c-.074.008-.24.136-.539.398-.432.382-.903.602-1.066.504a3.97 3.97 0 01-.114.024c-.166.033-.373.06-.558.045a.708.708 0 01-.252-.063.337.337 0 01-.168-.17c-.037-.09-.037-.202.005-.345l-.65.534-1.471 1.217V15.867l4.82-3.797a.41.41 0 01.016-.123c.037-.134.035-.202-.023-.196zm2.074.639c-.073 0-.195.103-.39.31-.265.283-.682.557-.903.613l-.034.018a2.191 2.191 0 01-.11.042c-.06.02-.138.044-.228.068-.18.049-.404.094-.604.089a.732.732 0 01-.275-.054.344.344 0 01-.184-.18c-.058-.139-.035-.334.092-.611L7.61 16.033v1.205h1.868l3.962-3.112c.103-.114.258-.27.467-.465.56-.519.687-.698.687-.963 0-.206-.023-.31-.096-.31zm.943 1.95l-.339.338c-.19.18-.529.402-.761.497l-.046.02-.003.005-.01.01c-.009.007-.013.008-.02.011a3.432 3.432 0 01-.282.093 3.058 3.058 0 01-.65.115 1.035 1.035 0 01-.31-.027.364.364 0 01-.218-.144c-.048-.074-.062-.173-.035-.295a1.11 1.11 0 01.095-.25l-3.197 2.526h4.252l.508-.582c.698-.814 1.016-1.396 1.016-1.894z"></path>
  </symbol>

<symbol version="1.1" xmlns="http://www.w3.org/2000/svg" xmlns:xlink="http://www.w3.org/1999/xlink" preserveAspectRatio="xMidYMid" viewBox="-38 0 332 332" id="Sublime Text">
    <defs>
      <linearGradient x1="55.1170996%" y1="58.6795405%" x2="63.6801778%" y2="39.5971572%" id="linearGradient-1">
        <stop stop-color="#FF9700" offset="0%"></stop>
        <stop stop-color="#F48E00" offset="53%"></stop>
        <stop stop-color="#D06F00" offset="100%"></stop>
      </linearGradient>
    </defs>
    <g>
      <path d="M255.288325,166.794648 C255.288325,162.908052 252.415934,160.666877 248.891046,161.780372 L6.39727934,238.675387 C2.86530029,239.795974 0,243.859878 0,247.73938 L0,326.329461 C0,330.216057 2.86530029,332.464324 6.39727934,331.343737 L248.891046,254.455814 C252.415934,253.335227 255.288325,249.271323 255.288325,245.384729 L255.288325,166.794648 L255.288325,166.794648 Z" fill="currentColor"></path>
      <path d="M5.68434189e-14,164.291056 C5.68434189e-14,168.177652 2.86530029,172.241555 6.39727934,173.362144 L248.926508,250.26425 C252.458487,251.384837 255.323787,249.13657 255.323787,245.257067 L255.323787,166.659893 C255.323787,162.780391 252.458487,158.716487 248.926508,157.595899 L6.39727934,80.693793 C2.86530029,79.5732052 5.68434189e-14,81.8143808 5.68434189e-14,85.7009761 L5.68434189e-14,164.291056 Z" fill="currentColor"></path>
      <path d="M255.288325,5.30235244 C255.288325,1.41575701 252.415934,-0.83251079 248.891046,0.288076943 L6.39727934,77.1759986 C2.86530029,78.2965864 0,82.36049 0,86.2470854 L0,164.837165 C0,168.723761 2.86530029,170.964936 6.39727934,169.851441 L248.891046,92.9564272 C252.415934,91.8358394 255.288325,87.7719358 255.288325,83.8924327 L255.288325,5.30235244 Z" fill="currentColor"></path>
    </g>
  </symbol>


<symbol fill="none" xmlns="http://www.w3.org/2000/svg" viewBox="0 0 15 15" id="Tailwind">
    <path d="M7.50006 2.5C6.47409 2.5 5.59203 2.77691 4.89966 3.37037C4.21227 3.95956 3.76259 4.81729 3.51314 5.88638C3.45869 6.1197 3.57742 6.35885 3.79619 6.45654C4.01496 6.55423 4.27228 6.483 4.40967 6.28672C4.7263 5.8344 5.04244 5.56261 5.3462 5.42313C5.64038 5.28805 5.95748 5.26068 6.32069 5.35797C6.68723 5.45615 6.97097 5.74369 7.41643 6.22816L7.43082 6.24382C7.76661 6.60905 8.17623 7.0546 8.73649 7.40028C9.31785 7.75898 10.0413 7.99999 11.0001 7.99999C12.026 7.99999 12.9081 7.72307 13.6005 7.12962C14.2878 6.54043 14.7375 5.6827 14.987 4.61361C15.0414 4.38029 14.9227 4.14114 14.7039 4.04345C14.4852 3.94576 14.2278 4.01698 14.0904 4.21326C13.7738 4.66559 13.4577 4.93737 13.1539 5.07686C12.8597 5.21194 12.5426 5.23931 12.1794 5.14202C11.8129 5.04384 11.5291 4.7563 11.0837 4.27182L11.0693 4.25616C10.7335 3.89093 10.3239 3.44538 9.76362 3.09971C9.18227 2.74101 8.45883 2.5 7.50006 2.5Z" fill="currentColor"></path>
    <path d="M4.00006 6.99999C2.97409 6.99999 2.09203 7.2769 1.39966 7.87036C0.712271 8.45955 0.262592 9.31727 0.0131365 10.3864C-0.0413057 10.6197 0.0774162 10.8588 0.296186 10.9565C0.514956 11.0542 0.772276 10.983 0.909673 10.7867C1.2263 10.3344 1.54244 10.0626 1.8462 9.92312C2.14038 9.78804 2.45747 9.76067 2.82069 9.85796C3.18723 9.95614 3.47097 10.2437 3.91643 10.7282L3.93082 10.7438C4.2666 11.109 4.67624 11.5546 5.23649 11.9003C5.81785 12.259 6.54128 12.5 7.50006 12.5C8.52602 12.5 9.40808 12.2231 10.1005 11.6296C10.7878 11.0404 11.2375 10.1827 11.487 9.1136C11.5414 8.88027 11.4227 8.64113 11.2039 8.54343C10.9852 8.44574 10.7278 8.51697 10.5904 8.71325C10.2738 9.16558 9.95768 9.43736 9.65391 9.57684C9.35974 9.71192 9.04264 9.7393 8.67942 9.64201C8.31289 9.54383 8.02915 9.25628 7.58369 8.77181L7.56929 8.75615C7.23351 8.39092 6.82388 7.94537 6.26362 7.59969C5.68227 7.241 4.95883 6.99999 4.00006 6.99999Z" fill="currentColor"></path>
  </symbol>

<symbol fill="none" xmlns="http://www.w3.org/2000/svg" viewBox="0 0 24 24" id="VSCode">
    <path d="M0.228341 8.36915C0.228341 8.36915 -0.356212 7.94324 0.345251 7.37453L1.97956 5.89736C1.97956 5.89736 2.44721 5.40004 2.94164 5.83334L18.0231 17.375V22.9094C18.0231 22.9094 18.0158 23.7785 16.9124 23.6825L0.228341 8.36915Z" fill="currentColor"></path>
    <path d="M4.11555 11.9367L0.228273 15.5089C0.228273 15.5089 -0.171172 15.8093 0.228273 16.346L2.03308 18.0053C2.03308 18.0053 2.46175 18.4706 3.09502 17.9413L7.21611 14.7827L4.11555 11.9367Z" fill="currentColor"></path>
    <path d="M10.94 11.9661L18.0691 6.46362L18.0228 0.95865C18.0228 0.95865 17.7183 -0.242793 16.7027 0.382548L7.21589 9.11025L10.94 11.9661Z" fill="currentColor"></path>
    <path d="M16.9121 23.69C17.3261 24.1183 17.8279 23.978 17.8279 23.978L23.3838 21.2108C24.0951 20.7208 23.9952 20.1127 23.9952 20.1127V3.58803C23.9952 2.86175 23.2596 2.61063 23.2596 2.61063L18.4441 0.264377C17.3919 -0.392968 16.7027 0.382548 16.7027 0.382548C16.7027 0.382548 17.5892 -0.262484 18.0228 0.95865L18.0228 22.8086C18.0228 22.9588 17.9911 23.1065 17.9278 23.2394C17.8011 23.4979 17.5259 23.7392 16.8658 23.6383L16.9121 23.69Z" fill="currentColor"></path>
  </symbol>





</svg>
